<svg width="24" height="25" viewBox="0 0 24 25" fill="none" xmlns="http://www.w3.org/2000/svg">
<g id="SVG">
<g id="Group">
<path id="Vector" d="M12 2.84375C10.0716 2.84375 8.18657 3.41558 6.58319 4.48692C4.97982 5.55826 3.73013 7.08101 2.99218 8.86259C2.25422 10.6442 2.06114 12.6046 2.43735 14.4959C2.81355 16.3872 3.74215 18.1245 5.10571 19.488C6.46928 20.8516 8.20656 21.7802 10.0979 22.1564C11.9892 22.5326 13.9496 22.3395 15.7312 21.6016C17.5127 20.8636 19.0355 19.6139 20.1068 18.0106C21.1782 16.4072 21.75 14.5221 21.75 12.5938C21.7473 10.0087 20.7192 7.53036 18.8913 5.70247C17.0634 3.87459 14.585 2.84648 12 2.84375ZM12.75 20.8091V14.8438H15C15.1989 14.8438 15.3897 14.7647 15.5303 14.6241C15.671 14.4834 15.75 14.2927 15.75 14.0938C15.75 13.8948 15.671 13.7041 15.5303 13.5634C15.3897 13.4228 15.1989 13.3438 15 13.3438H12.75V11.0938C12.75 10.6959 12.908 10.3144 13.1893 10.0331C13.4706 9.75179 13.8522 9.59375 14.25 9.59375H15.75C15.9489 9.59375 16.1397 9.51473 16.2803 9.37408C16.421 9.23343 16.5 9.04266 16.5 8.84375C16.5 8.64484 16.421 8.45407 16.2803 8.31342C16.1397 8.17277 15.9489 8.09375 15.75 8.09375H14.25C13.4544 8.09375 12.6913 8.40982 12.1287 8.97243C11.5661 9.53504 11.25 10.2981 11.25 11.0938V13.3438H9C8.80109 13.3438 8.61033 13.4228 8.46967 13.5634C8.32902 13.7041 8.25 13.8948 8.25 14.0938C8.25 14.2927 8.32902 14.4834 8.46967 14.6241C8.61033 14.7647 8.80109 14.8438 9 14.8438H11.25V20.8091C9.13575 20.6161 7.17728 19.6154 5.78198 18.0153C4.38667 16.4151 3.66195 14.3387 3.75855 12.2178C3.85515 10.097 4.76564 8.09502 6.30064 6.62835C7.83563 5.16168 9.87696 4.34322 12 4.34322C14.1231 4.34322 16.1644 5.16168 17.6994 6.62835C19.2344 8.09502 20.1449 10.097 20.2415 12.2178C20.3381 14.3387 19.6133 16.4151 18.218 18.0153C16.8227 19.6154 14.8643 20.6161 12.75 20.8091Z" fill="white"/>
</g>
</g>
</svg>
