<svg width="37" height="34" viewBox="0 0 37 34" fill="none" xmlns="http://www.w3.org/2000/svg">
<rect width="37" height="34" fill="#AEAEAE"/>
<g clip-path="url(#clip0_536_424)">
<rect x="-26" y="-22" width="430" height="5052" fill="white"/>
<rect x="-26" y="-22" width="430" height="68" fill="#D9D9D9"/>
<path d="M29.7898 24.388C24.6107 28.0158 18.2458 27.1171 14.3941 22.1961C14.1273 21.8552 13.9044 21.4404 13.7987 21.0256C13.6035 20.2479 14.1598 19.7718 14.9471 19.998C15.2269 20.0797 15.4855 20.2306 15.7425 20.3688C16.359 20.7004 16.9462 21.0963 17.5887 21.3728C19.9017 22.3627 22.1562 22.2386 24.178 20.7271C25.0287 20.0907 25.7883 19.2753 26.3999 18.4174C28.1729 15.9287 28.9911 13.0927 29.3343 10.12C29.3782 9.73974 29.2953 9.3218 29.1635 8.95571C28.8545 8.09784 27.9924 7.87788 27.3206 8.50635C26.9221 8.88344 26.6504 9.38465 26.3137 9.82458C25.3589 11.08 24.5163 12.4422 23.4103 13.5577C21.9593 15.0174 20.079 15.5814 17.9595 15.2028C15.9653 14.8477 14.2834 13.8783 12.7886 12.6244C11.5166 11.5592 10.3487 10.3761 9.13853 9.24167C8.45862 8.60377 7.80473 8.43722 7.32326 8.78917C6.80763 9.16782 6.77509 9.76016 7.24355 10.5819C7.77057 11.5105 8.32686 12.4218 8.83924 13.3566C10.4317 16.2602 11.7866 19.2863 11.9948 22.5827C12.1103 24.4021 12.8602 25.6308 14.1972 26.718C14.9747 27.3496 15.7148 28.0237 16.4696 28.682C16.4533 28.7072 16.4371 28.7323 16.4208 28.7559C16.3264 28.7166 16.2207 28.6914 16.1361 28.638C10.6561 25.1296 6.05289 20.8166 3.30232 14.9561C1.67573 11.49 0.964906 7.85588 2.40607 4.10388C2.41095 4.08973 2.36215 4.0536 2.33775 4.03003C1.47078 5.07801 0.644467 6.8079 0.340294 8.1874C-0.547825 12.1939 0.354933 15.9098 2.43697 19.3743C5.95854 25.2333 11.0042 29.5572 17.1414 32.7608C17.9384 33.1772 18.5793 33.1599 19.3633 32.7561C23.6559 30.536 27.4247 27.6906 30.6144 24.1334C30.6909 24.047 30.8617 23.9056 30.7999 23.8333C30.7381 23.761 30.4876 23.9449 29.7898 24.3895V24.388ZM20.6239 16.9232C21.743 16.9169 22.6295 17.756 22.6262 18.8196C22.623 19.8079 21.6731 20.7161 20.6467 20.7114C19.6073 20.7067 18.7029 19.8252 18.6899 18.8055C18.6752 17.7591 19.5276 16.9295 20.6239 16.9232Z" fill="url(#paint0_linear_536_424)"/>
<path d="M18.236 8.25019C17.5072 7.45674 16.8403 6.60987 16.0498 5.8934C14.407 4.40391 12.5055 3.43135 10.1681 3.44706C6.86119 3.47063 4.09436 5.60902 3.36565 8.73726C3.24202 9.26989 3.14118 9.80881 2.98177 10.343C2.67597 8.96194 2.64181 7.56672 2.90857 6.18722C3.49577 3.14696 5.25087 1.04157 8.41459 0.252827C10.8707 -0.359937 13.1838 0.175839 15.2772 1.48935C16.3215 2.14454 17.2584 2.95685 18.2848 3.7283C18.9451 3.18624 19.6153 2.55619 20.3668 2.03142C23.215 0.043859 26.3104 -0.606614 29.6758 0.6252C31.6309 1.34166 33.1225 2.64418 34.3864 4.32064C33.578 3.89171 32.8818 3.38107 32.0978 3.13125C27.7857 1.75803 24.0022 2.80758 20.7002 5.67029C19.8089 6.44332 19.0639 7.37347 18.2343 8.25176L18.236 8.25019Z" fill="url(#paint1_linear_536_424)"/>
<path d="M28.0556 3.60102C29.8286 3.51303 31.4682 3.86498 32.9386 4.72913C35.8144 6.41973 36.8733 9.06091 36.5448 12.131C35.9348 17.8313 32.7597 21.9148 27.5432 24.5481C26.9105 24.8671 26.2045 25.0525 25.5295 25.263C29.9115 22.0987 32.314 17.8014 33.2265 12.7061C33.7259 9.91564 33.1989 7.27132 30.9542 5.23034C30.2921 4.62858 29.3959 4.2672 28.5989 3.80841C28.4346 3.71414 28.2394 3.67015 28.0572 3.60259L28.0556 3.60102Z" fill="url(#paint2_linear_536_424)"/>
<path d="M18.2993 8.73715C19.7031 8.75601 20.8645 9.89512 20.8628 11.2495C20.8596 12.6196 19.6266 13.7932 18.2229 13.7618C16.824 13.732 15.6642 12.5866 15.6642 11.2385C15.6642 9.85741 16.8679 8.71673 18.2993 8.73558V8.73715Z" fill="#FF5D01"/>
</g>
<rect x="-25.5" y="-21.5" width="429" height="5051" stroke="black"/>
<defs>
<linearGradient id="paint0_linear_536_424" x1="18.3897" y1="13.4925" x2="6.40611" y2="32.308" gradientUnits="userSpaceOnUse">
<stop stop-color="#FF5D00"/>
<stop offset="1" stop-color="#FFA944"/>
</linearGradient>
<linearGradient id="paint1_linear_536_424" x1="18.5665" y1="2.09038" x2="18.7112" y2="10.3427" gradientUnits="userSpaceOnUse">
<stop stop-color="#36B0B8"/>
<stop offset="1" stop-color="#1A8B92"/>
</linearGradient>
<linearGradient id="paint2_linear_536_424" x1="36.6024" y1="14.4255" x2="25.5295" y2="14.4255" gradientUnits="userSpaceOnUse">
<stop stop-color="#36B0B8"/>
<stop offset="1" stop-color="#1A8B92"/>
</linearGradient>
<clipPath id="clip0_536_424">
<rect x="-26" y="-22" width="430" height="5052" fill="white"/>
</clipPath>
</defs>
</svg>
