<svg width="24" height="25" viewBox="0 0 24 25" fill="none" xmlns="http://www.w3.org/2000/svg">
<g id="SVG">
<g id="Group">
<path id="Vector" d="M12 8.09375C11.11 8.09375 10.24 8.35767 9.49993 8.85214C8.75991 9.3466 8.18314 10.0494 7.84254 10.8717C7.50195 11.6939 7.41283 12.5987 7.58647 13.4717C7.7601 14.3446 8.18868 15.1464 8.81802 15.7757C9.44736 16.4051 10.2492 16.8337 11.1221 17.0073C11.995 17.1809 12.8998 17.0918 13.7221 16.7512C14.5443 16.4106 15.2471 15.8338 15.7416 15.0938C16.2361 14.3538 16.5 13.4838 16.5 12.5938C16.4988 11.4007 16.0243 10.2568 15.1806 9.41314C14.337 8.5695 13.1931 8.09499 12 8.09375ZM12 15.5938C11.4067 15.5938 10.8266 15.4178 10.3333 15.0882C9.83994 14.7585 9.45542 14.29 9.22836 13.7418C9.0013 13.1936 8.94189 12.5904 9.05764 12.0085C9.1734 11.4265 9.45912 10.892 9.87868 10.4724C10.2982 10.0529 10.8328 9.76715 11.4147 9.65139C11.9967 9.53564 12.5999 9.59505 13.1481 9.82211C13.6962 10.0492 14.1648 10.4337 14.4944 10.927C14.8241 11.4204 15 12.0004 15 12.5938C15 13.3894 14.6839 14.1525 14.1213 14.7151C13.5587 15.2777 12.7956 15.5938 12 15.5938ZM16.5 2.84375H7.5C6.10807 2.84524 4.77358 3.39884 3.78933 4.38308C2.80509 5.36733 2.25149 6.70182 2.25 8.09375V17.0938C2.25149 18.4857 2.80509 19.8202 3.78933 20.8044C4.77358 21.7887 6.10807 22.3423 7.5 22.3438H16.5C17.8919 22.3423 19.2264 21.7887 20.2107 20.8044C21.1949 19.8202 21.7485 18.4857 21.75 17.0938V8.09375C21.7485 6.70182 21.1949 5.36733 20.2107 4.38308C19.2264 3.39884 17.8919 2.84524 16.5 2.84375ZM20.25 17.0938C20.25 18.0883 19.8549 19.0421 19.1516 19.7454C18.4484 20.4487 17.4946 20.8438 16.5 20.8438H7.5C6.50544 20.8438 5.55161 20.4487 4.84835 19.7454C4.14509 19.0421 3.75 18.0883 3.75 17.0938V8.09375C3.75 7.09919 4.14509 6.14536 4.84835 5.4421C5.55161 4.73884 6.50544 4.34375 7.5 4.34375H16.5C17.4946 4.34375 18.4484 4.73884 19.1516 5.4421C19.8549 6.14536 20.25 7.09919 20.25 8.09375V17.0938ZM18 7.71875C18 7.94125 17.934 8.15876 17.8104 8.34377C17.6868 8.52877 17.5111 8.67297 17.3055 8.75811C17.1 8.84326 16.8738 8.86554 16.6555 8.82213C16.4373 8.77873 16.2368 8.67158 16.0795 8.51425C15.9222 8.35691 15.815 8.15646 15.7716 7.93823C15.7282 7.72 15.7505 7.4938 15.8356 7.28823C15.9208 7.08266 16.065 6.90696 16.25 6.78335C16.435 6.65973 16.6525 6.59375 16.875 6.59375C17.1734 6.59375 17.4595 6.71228 17.6705 6.92325C17.8815 7.13423 18 7.42038 18 7.71875Z" fill="white"/>
</g>
</g>
</svg>
