<svg width="24" height="25" viewBox="0 0 24 25" fill="none" xmlns="http://www.w3.org/2000/svg">
<g id="SVG">
<g id="Group">
<path id="Vector" d="M20.25 2.84375H3.75C3.35218 2.84375 2.97064 3.00179 2.68934 3.28309C2.40804 3.56439 2.25 3.94593 2.25 4.34375V20.8438C2.25 21.2416 2.40804 21.6231 2.68934 21.9044C2.97064 22.1857 3.35218 22.3438 3.75 22.3438H20.25C20.6478 22.3438 21.0294 22.1857 21.3107 21.9044C21.592 21.6231 21.75 21.2416 21.75 20.8438V4.34375C21.75 3.94593 21.592 3.56439 21.3107 3.28309C21.0294 3.00179 20.6478 2.84375 20.25 2.84375ZM20.25 20.8438H3.75V4.34375H20.25V20.8438ZM9 11.0938V17.0938C9 17.2927 8.92098 17.4834 8.78033 17.6241C8.63968 17.7647 8.44891 17.8438 8.25 17.8438C8.05109 17.8438 7.86032 17.7647 7.71967 17.6241C7.57902 17.4834 7.5 17.2927 7.5 17.0938V11.0938C7.5 10.8948 7.57902 10.7041 7.71967 10.5634C7.86032 10.4228 8.05109 10.3438 8.25 10.3438C8.44891 10.3438 8.63968 10.4228 8.78033 10.5634C8.92098 10.7041 9 10.8948 9 11.0938ZM17.25 13.7188V17.0938C17.25 17.2927 17.171 17.4834 17.0303 17.6241C16.8897 17.7647 16.6989 17.8438 16.5 17.8438C16.3011 17.8438 16.1103 17.7647 15.9697 17.6241C15.829 17.4834 15.75 17.2927 15.75 17.0938V13.7188C15.75 13.2215 15.5525 12.7446 15.2008 12.3929C14.8492 12.0413 14.3723 11.8438 13.875 11.8438C13.3777 11.8438 12.9008 12.0413 12.5492 12.3929C12.1975 12.7446 12 13.2215 12 13.7188V17.0938C12 17.2927 11.921 17.4834 11.7803 17.6241C11.6397 17.7647 11.4489 17.8438 11.25 17.8438C11.0511 17.8438 10.8603 17.7647 10.7197 17.6241C10.579 17.4834 10.5 17.2927 10.5 17.0938V11.0938C10.5009 10.91 10.5693 10.7331 10.692 10.5964C10.8148 10.4597 10.9834 10.3728 11.166 10.3523C11.3485 10.3317 11.5323 10.3788 11.6824 10.4847C11.8325 10.5907 11.9385 10.748 11.9803 10.9269C12.4877 10.5827 13.0792 10.3832 13.6914 10.3499C14.3036 10.3165 14.9133 10.4505 15.455 10.7376C15.9968 11.0246 16.4501 11.4537 16.7664 11.979C17.0826 12.5042 17.2498 13.1057 17.25 13.7188ZM9.375 8.46875C9.375 8.69125 9.30902 8.90876 9.1854 9.09377C9.06179 9.27877 8.88609 9.42297 8.68052 9.50811C8.47495 9.59326 8.24875 9.61554 8.03052 9.57213C7.81229 9.52873 7.61184 9.42158 7.4545 9.26425C7.29717 9.10691 7.19002 8.90646 7.14662 8.68823C7.10321 8.47 7.12549 8.2438 7.21064 8.03823C7.29578 7.83266 7.43998 7.65696 7.62498 7.53335C7.80999 7.40973 8.0275 7.34375 8.25 7.34375C8.54837 7.34375 8.83452 7.46228 9.0455 7.67325C9.25647 7.88423 9.375 8.17038 9.375 8.46875Z" fill="white"/>
</g>
</g>
</svg>
