<svg width="25" height="25" viewBox="0 0 25 25" fill="none" xmlns="http://www.w3.org/2000/svg">
<g id="svg1727083697_425">
<path id="Vector" opacity="0.12" d="M12.3398 13.5938C13.1355 13.5938 13.8986 13.2777 14.4612 12.7151C15.0238 12.1525 15.3398 11.3894 15.3398 10.5938C15.3398 9.7981 15.0238 9.03504 14.4612 8.47243C13.8986 7.90982 13.1355 7.59375 12.3398 7.59375C11.5442 7.59375 10.7811 7.90982 10.2185 8.47243C9.65591 9.03504 9.33984 9.7981 9.33984 10.5938C9.33984 11.3894 9.65591 12.1525 10.2185 12.7151C10.7811 13.2777 11.5442 13.5938 12.3398 13.5938Z" fill="white"/>
<path id="Vector_2" d="M12.3398 13.5938C13.1355 13.5938 13.8986 13.2777 14.4612 12.7151C15.0238 12.1525 15.3398 11.3894 15.3398 10.5938C15.3398 9.7981 15.0238 9.03504 14.4612 8.47243C13.8986 7.90982 13.1355 7.59375 12.3398 7.59375C11.5442 7.59375 10.7811 7.90982 10.2185 8.47243C9.65591 9.03504 9.33984 9.7981 9.33984 10.5938C9.33984 11.3894 9.65591 12.1525 10.2185 12.7151C10.7811 13.2777 11.5442 13.5937 12.3398 13.5938Z" stroke="white" stroke-width="2" stroke-linecap="round" stroke-linejoin="round"/>
<path id="Vector_3" d="M12.3398 22.5938C16.3398 18.5938 20.3398 15.0118 20.3398 10.5938C20.3398 8.47202 19.497 6.43719 17.9967 4.9369C16.4964 3.4366 14.4616 2.59375 12.3398 2.59375C10.2181 2.59375 8.18328 3.4366 6.68299 4.9369C5.1827 6.43719 4.33984 8.47202 4.33984 10.5938C4.33984 15.0118 8.33984 18.5938 12.3398 22.5938Z" stroke="white" stroke-width="2" stroke-linecap="round" stroke-linejoin="round"/>
</g>
</svg>
