<svg width="24" height="25" viewBox="0 0 24 25" fill="none" xmlns="http://www.w3.org/2000/svg">
<g id="SVG">
<g id="Group">
<path id="Vector" d="M15.4163 11.9694L10.9163 8.96938C10.8033 8.894 10.6719 8.85072 10.5363 8.84415C10.4006 8.83757 10.2657 8.86796 10.146 8.93206C10.0263 8.99616 9.9262 9.09158 9.85645 9.20811C9.7867 9.32465 9.74991 9.45794 9.75 9.59375V15.5938C9.74991 15.7296 9.7867 15.8629 9.85645 15.9794C9.9262 16.0959 10.0263 16.1913 10.146 16.2554C10.2657 16.3195 10.4006 16.3499 10.5363 16.3434C10.6719 16.3368 10.8033 16.2935 10.9163 16.2181L15.4163 13.2181C15.5191 13.1497 15.6035 13.0568 15.6618 12.9479C15.7202 12.839 15.7507 12.7173 15.7507 12.5938C15.7507 12.4702 15.7202 12.3485 15.6618 12.2396C15.6035 12.1307 15.5191 12.0378 15.4163 11.9694ZM11.25 14.1922V11L13.6481 12.5938L11.25 14.1922ZM21.9684 7.11125C21.8801 6.76564 21.7109 6.44599 21.4747 6.17866C21.2385 5.91133 20.9421 5.70399 20.61 5.57375C17.3962 4.3325 12.2812 4.34375 12 4.34375C11.7188 4.34375 6.60375 4.3325 3.39 5.57375C3.0579 5.70399 2.76153 5.91133 2.52534 6.17866C2.28915 6.44599 2.1199 6.76564 2.03156 7.11125C1.78875 8.04688 1.5 9.75688 1.5 12.5938C1.5 15.4306 1.78875 17.1406 2.03156 18.0763C2.11977 18.422 2.28895 18.7419 2.52515 19.0094C2.76136 19.2769 3.0578 19.4844 3.39 19.6147C6.46875 20.8025 11.2875 20.8438 11.9381 20.8438H12.0619C12.7125 20.8438 17.5341 20.8025 20.61 19.6147C20.9422 19.4844 21.2386 19.2769 21.4748 19.0094C21.711 18.7419 21.8802 18.422 21.9684 18.0763C22.2113 17.1388 22.5 15.4306 22.5 12.5938C22.5 9.75688 22.2113 8.04688 21.9684 7.11125ZM20.5163 17.705C20.4877 17.82 20.4323 17.9266 20.3545 18.0161C20.2768 18.1056 20.179 18.1753 20.0691 18.2197C17.1019 19.3653 12.0553 19.3447 12.0066 19.3447H12C11.9494 19.3447 6.90656 19.3634 3.9375 18.2197C3.8276 18.1753 3.72977 18.1056 3.65204 18.0161C3.57431 17.9266 3.51888 17.82 3.49031 17.705C3.2625 16.8491 3 15.2722 3 12.5938C3 9.91532 3.2625 8.33844 3.48375 7.48719C3.51179 7.37149 3.56697 7.26412 3.64473 7.17397C3.7225 7.08382 3.8206 7.01347 3.93094 6.96875C6.79219 5.86344 11.5866 5.84375 11.9794 5.84375H12.0047C12.0553 5.84375 17.1028 5.82688 20.0672 6.96875C20.1771 7.01311 20.2749 7.08288 20.3526 7.17234C20.4304 7.26181 20.4858 7.36842 20.5144 7.48344C20.7375 8.33844 21 9.91532 21 12.5938C21 15.2722 20.7375 16.8491 20.5163 17.7003V17.705Z" fill="white"/>
</g>
</g>
</svg>
