<svg width="206" height="60" viewBox="0 0 206 60" fill="none" xmlns="http://www.w3.org/2000/svg">
<g id="Layer_1" clip-path="url(#clip0_514_355)">
<g id="Group">
<path id="Vector" d="M101.684 1.35352V46.7222H93.1556V29.4217H83.537C85.1716 34.08 86.9841 37.4678 86.9841 46.7222H77.3655V16.4774C77.3655 11.9998 76.6399 1.35352 101.682 1.35352H101.684ZM93.1528 27.6064V4.19647H92.67C90.4933 4.19647 81.1175 4.86275 81.1175 16.0539C81.1175 21.257 82.0858 24.9469 82.9328 27.6064H93.1556H93.1528Z" fill="white"/>
<path id="Vector_2" d="M129.21 4.25815C129.21 9.27779 126.003 11.3952 122.92 11.3952C121.045 11.3952 119.289 10.6696 118.14 9.33708C116.023 6.9176 113.603 5.76856 112.031 5.76856C110.76 5.76856 110.035 6.55623 110.035 7.88596C110.035 9.57987 111.729 10.9096 117.536 14.0546C124.552 17.9252 134.715 25.9713 134.715 34.9858C134.715 35.59 134.715 36.2562 134.594 36.8604C132.959 46.6597 124.614 46.9025 118.744 46.9025C111.607 46.9025 109.188 44.8444 106.526 41.5187C105.255 39.9461 104.047 36.6797 104.047 33.2919C104.047 28.3908 107.556 23.2498 114.512 23.2498C117.72 23.2498 118.202 25.4265 118.202 25.4265C115.783 25.7285 111.489 30.6889 111.489 36.979C111.489 40.7903 113.363 43.6332 118.928 43.7546C125.641 43.7546 125.884 36.8576 125.884 36.739C125.704 27.1825 117.296 22.5835 111.367 18.7129C106.528 15.5679 106.105 11.2117 106.105 9.69845C106.105 2.44002 110.885 1.65234 112.638 1.65234C113.121 1.65234 113.426 1.71163 113.426 1.71163H128.973C129.154 2.61788 129.216 3.46483 129.216 4.25251L129.21 4.25815Z" fill="white"/>
<path id="Vector_3" d="M181.955 1.65597L170.403 46.844H159.937L155.883 25.7943L151.527 46.844H141.002L132.352 1.59668H141.547L149.531 40.1305C152.859 24.2218 153.523 21.6216 154.432 18.0503L151.287 1.59668H160.905L168.466 40.1305C171.611 32.1465 172.701 25.8536 172.701 21.0146C172.701 16.5991 171.794 13.3327 170.583 11.0346C169.615 9.2193 169.313 7.40399 169.313 5.89358C169.313 3.41199 170.1 1.65879 170.1 1.65879H181.958L181.955 1.65597Z" fill="white"/>
<path id="Vector_4" d="M205.368 1.35352V46.7222H196.839V29.4217H187.221C188.855 34.08 190.668 37.4678 190.668 46.7222H181.049V16.4774C181.049 11.9998 180.323 1.35352 205.365 1.35352H205.368ZM196.839 27.6064V4.19647H196.356C194.18 4.19647 184.804 4.86275 184.804 16.0539C184.804 21.257 185.772 24.9469 186.619 27.6064H196.842H196.839Z" fill="white"/>
</g>
<g id="Group_2">
<path id="Vector_5" d="M51.7007 44.4151C42.7116 50.9338 31.6644 49.319 24.9791 40.4767C24.5161 39.8641 24.1293 39.1188 23.9458 38.3735C23.6071 36.976 24.5726 36.1205 25.939 36.5271C26.4246 36.6739 26.8735 36.9449 27.3196 37.1934C28.3895 37.789 29.4087 38.5005 30.5239 38.9974C34.5385 40.776 38.4514 40.553 41.9606 37.837C43.4372 36.6936 44.7556 35.2284 45.8171 33.6869C48.8944 29.215 50.3145 24.1191 50.9102 18.7777C50.9864 18.0944 50.8424 17.3435 50.6137 16.6857C50.0773 15.1442 48.581 14.749 47.415 15.8782C46.7234 16.5558 46.2519 17.4564 45.6675 18.2469C44.0103 20.5026 42.5479 22.9503 40.6281 24.9548C38.1098 27.5776 34.8462 28.5911 31.1676 27.9107C27.7063 27.2727 24.7871 25.5307 22.1926 23.2778C19.9849 21.3637 17.9578 19.2378 15.8574 17.1995C14.6773 16.0533 13.5424 15.754 12.7067 16.3864C11.8117 17.0668 11.7553 18.1311 12.5684 19.6077C13.4831 21.2762 14.4486 22.9136 15.3379 24.5934C18.1018 29.8107 20.4535 35.2482 20.8149 41.1712C21.0154 44.4405 22.3169 46.6482 24.6375 48.6019C25.987 49.7368 27.2716 50.948 28.5815 52.1309C28.5533 52.176 28.5251 52.2212 28.4968 52.2636C28.3331 52.193 28.1496 52.1478 28.0028 52.0518C18.4914 45.7476 10.5018 37.998 5.72776 27.4675C2.90457 21.2395 1.67083 14.7094 4.17218 7.96765C4.18065 7.94224 4.09596 7.87731 4.05361 7.83496C2.54884 9.71803 1.11466 12.8264 0.586725 15.3051C-0.954739 22.5043 0.612134 29.1811 4.22582 35.4063C10.338 45.934 19.0956 53.7034 29.7475 59.4599C31.1309 60.208 32.2432 60.177 33.604 59.4514C41.0544 55.4622 47.5957 50.3494 53.132 43.9577C53.2647 43.8025 53.5611 43.5484 53.4539 43.4185C53.3466 43.2886 52.9118 43.6189 51.7007 44.4179V44.4151ZM35.792 31.0021C37.7343 30.9908 39.273 32.4984 39.2673 34.4097C39.2617 36.1855 37.6129 37.8173 35.8315 37.8088C34.0275 37.8003 32.4578 36.2165 32.4352 34.3843C32.4098 32.504 33.8891 31.0134 35.792 31.0021Z" fill="white"/>
<path id="Vector_6" d="M31.6458 15.4181C30.381 13.9924 29.2235 12.4707 27.8515 11.1833C25 8.50692 21.6997 6.75936 17.6428 6.7876C11.9032 6.82994 7.10099 10.6723 5.8362 16.2933C5.62163 17.2504 5.4466 18.2187 5.16992 19.1786C4.63916 16.697 4.57987 14.19 5.04288 11.7112C6.06205 6.24837 9.10828 2.46529 14.5994 1.04804C18.8624 -0.0530031 22.877 0.909706 26.5104 3.2699C28.3229 4.44717 29.9491 5.90676 31.7305 7.29295C32.8768 6.31895 34.0399 5.18685 35.3442 4.2439C40.2876 0.672558 45.6602 -0.496244 51.5014 1.71714C54.8948 3.00452 57.4837 5.34494 59.6773 8.35729C58.2742 7.58656 57.0659 6.66902 55.7051 6.22013C48.2208 3.75266 41.6541 5.63856 35.923 10.7824C34.3759 12.1714 33.0828 13.8428 31.643 15.4209L31.6458 15.4181Z" fill="white"/>
<path id="Vector_7" d="M48.6891 7.0646C51.7664 6.9065 54.6122 7.5389 57.1643 9.09166C62.1557 12.1294 63.9936 16.8752 63.4234 22.3917C62.3647 32.6343 56.8538 39.9718 47.7998 44.7034C46.7016 45.2765 45.4763 45.6097 44.3047 45.988C51.9104 40.3021 56.0802 32.5806 57.664 23.425C58.5308 18.411 57.616 13.6596 53.72 9.99225C52.571 8.91097 51.0154 8.26164 49.6321 7.43726C49.3469 7.26787 49.0081 7.18882 48.6919 7.06743L48.6891 7.0646Z" fill="white"/>
<path id="Vector_8" d="M31.7572 16.2933C34.1936 16.3272 36.2093 18.374 36.2065 20.8076C36.2009 23.2694 34.0609 25.3783 31.6245 25.3218C29.1965 25.2682 27.1836 23.2101 27.1836 20.7878C27.1836 18.3062 29.2728 16.2566 31.7572 16.2905V16.2933Z" fill="white"/>
</g>
<g id="Group_3">
<path id="Vector_9" d="M80.6806 56.9419H78.9161L78.7806 57.3343C78.741 57.4445 78.71 57.5517 78.6846 57.6534C78.6592 57.755 78.6479 57.8651 78.6479 57.9809C78.6479 58.2519 78.7919 58.3959 79.077 58.4156V58.6895H77.3125V58.4156C77.4141 58.4043 77.5045 58.3676 77.5807 58.3083C77.6569 58.2491 77.7275 58.1644 77.7924 58.0599C77.8545 57.9555 77.9223 57.8058 77.9957 57.611L79.7179 53.0205H80.8217L82.1853 57.6505C82.2446 57.8566 82.2983 58.0034 82.3378 58.091C82.3801 58.1785 82.4338 58.2491 82.4987 58.3027C82.5636 58.3563 82.6568 58.3959 82.7754 58.4213V58.6951H80.4942V58.4213C80.6382 58.4043 80.7427 58.3648 80.8133 58.3027C80.881 58.2406 80.9177 58.1503 80.9177 58.0345C80.9177 57.9498 80.9092 57.8538 80.8895 57.7494C80.8697 57.6449 80.8387 57.5122 80.7935 57.3513L80.6806 56.9476V56.9419ZM79.0742 56.4592H80.562L79.9014 54.1328L79.0742 56.4592Z" fill="white"/>
<path id="Vector_10" d="M84.7524 55.152L84.8033 55.1633C85.0545 54.929 85.2804 54.7624 85.4808 54.6664C85.6813 54.5705 85.8874 54.5225 86.0963 54.5225C86.3052 54.5225 86.4689 54.5479 86.6044 54.6015C86.74 54.6552 86.8529 54.7314 86.9461 54.8302C87.0392 54.9318 87.1155 55.0617 87.1747 55.2254C87.4542 54.9657 87.6942 54.785 87.9003 54.6806C88.1064 54.5761 88.321 54.5225 88.544 54.5225C88.767 54.5225 88.9477 54.5507 89.0917 54.61C89.2357 54.6664 89.3542 54.7568 89.4502 54.8782C89.5462 54.9996 89.6112 55.152 89.6535 55.3327C89.6959 55.5134 89.7184 55.7336 89.7184 55.9849V57.4925C89.7184 57.6139 89.7184 57.7268 89.7241 57.8341C89.7269 57.9413 89.7382 58.026 89.7551 58.0882C89.7721 58.1503 89.7947 58.2039 89.8229 58.2434C89.8511 58.283 89.8935 58.3168 89.9443 58.3451C89.9979 58.3733 90.06 58.3959 90.1334 58.4156V58.6895H88.1403V58.4156C88.2645 58.3846 88.3492 58.3422 88.3972 58.283C88.4452 58.2237 88.4762 58.1446 88.4932 58.043C88.5101 57.9413 88.5214 57.7578 88.5214 57.4981V56.3914C88.5214 56.143 88.5129 55.9425 88.496 55.7873C88.4791 55.632 88.448 55.5106 88.4 55.4231C88.352 55.3355 88.2984 55.2706 88.2334 55.2339C88.1685 55.1944 88.0838 55.1746 87.9794 55.1746C87.9088 55.1746 87.841 55.1859 87.7817 55.2085C87.7224 55.2311 87.6603 55.265 87.5982 55.3101C87.5361 55.3553 87.4825 55.4033 87.4401 55.4485C87.3949 55.4965 87.3611 55.5473 87.3357 55.6066C87.3102 55.6659 87.2905 55.728 87.282 55.8014C87.2736 55.8748 87.2679 55.9905 87.2679 56.1514V57.4981C87.2679 57.6844 87.2707 57.8284 87.2792 57.9272C87.2877 58.026 87.3018 58.1051 87.3215 58.1672C87.3441 58.2265 87.378 58.2773 87.426 58.3168C87.474 58.3564 87.5502 58.3902 87.6519 58.4185V58.6923H85.6841V58.4185C85.8111 58.3874 85.8987 58.3451 85.9466 58.2858C85.9946 58.2265 86.0285 58.1474 86.0426 58.0486C86.0568 57.9498 86.068 57.7663 86.068 57.5009V56.3942C86.068 56.2136 86.0652 56.0583 86.0567 55.9341C86.0483 55.8098 86.037 55.7082 86.0229 55.6292C86.0088 55.5501 85.9833 55.4852 85.9551 55.4259C85.9269 55.3666 85.893 55.3214 85.8563 55.2847C85.8196 55.248 85.7744 55.2226 85.7236 55.2028C85.6728 55.1831 85.6079 55.1746 85.5316 55.1746C85.43 55.1746 85.3227 55.2057 85.2126 55.2706C85.0997 55.3327 85.0065 55.4231 84.9303 55.536C84.8541 55.6489 84.8174 55.7703 84.8174 55.9002V57.5009C84.8174 57.7607 84.8258 57.9413 84.84 58.043C84.8541 58.1474 84.8879 58.2265 84.9359 58.2858C84.9868 58.3451 85.0715 58.3902 85.1957 58.4213V58.6951H83.2166V58.4213C83.3493 58.3846 83.4396 58.3394 83.4905 58.2801C83.5413 58.2208 83.5752 58.1446 83.5949 58.0458C83.6119 57.947 83.6203 57.7663 83.6203 57.5038V55.8042C83.6203 55.6009 83.6175 55.4485 83.609 55.3525C83.6034 55.2537 83.5865 55.1774 83.5582 55.1182C83.5328 55.0589 83.4933 55.0109 83.4396 54.9742C83.386 54.9375 83.2928 54.9036 83.1602 54.8782V54.5959L84.2923 54.562H84.8117L84.7496 55.1577L84.7524 55.152Z" fill="white"/>
<path id="Vector_11" d="M92.2915 55.152L92.3423 55.1633C92.5936 54.929 92.8194 54.7624 93.0199 54.6664C93.2203 54.5705 93.4264 54.5225 93.6353 54.5225C93.8443 54.5225 94.008 54.5479 94.1435 54.6015C94.279 54.6552 94.392 54.7314 94.4851 54.8302C94.5783 54.9318 94.6545 55.0617 94.7138 55.2254C94.9933 54.9657 95.2333 54.785 95.4394 54.6806C95.6454 54.5761 95.86 54.5225 96.083 54.5225C96.3061 54.5225 96.4868 54.5507 96.6307 54.61C96.7747 54.6664 96.8933 54.7568 96.9893 54.8782C97.0853 54.9996 97.1502 55.152 97.1926 55.3327C97.2349 55.5134 97.2575 55.7336 97.2575 55.9849V57.4925C97.2575 57.6139 97.2575 57.7268 97.2631 57.8341C97.266 57.9413 97.2773 58.026 97.2942 58.0882C97.3111 58.1503 97.3337 58.2039 97.362 58.2434C97.3902 58.283 97.4325 58.3168 97.4834 58.3451C97.537 58.3733 97.5991 58.3959 97.6725 58.4156V58.6895H95.6793V58.4156C95.8035 58.3846 95.8882 58.3422 95.9362 58.283C95.9842 58.2237 96.0153 58.1446 96.0322 58.043C96.0492 57.9413 96.0605 57.7578 96.0605 57.4981V56.3914C96.0605 56.143 96.052 55.9425 96.0351 55.7873C96.0181 55.632 95.9871 55.5106 95.9391 55.4231C95.8911 55.3355 95.8374 55.2706 95.7725 55.2339C95.7076 55.1944 95.6229 55.1746 95.5184 55.1746C95.4478 55.1746 95.3801 55.1859 95.3208 55.2085C95.2615 55.2311 95.1994 55.265 95.1373 55.3101C95.0752 55.3553 95.0215 55.4033 94.9792 55.4485C94.934 55.4965 94.9001 55.5473 94.8747 55.6066C94.8493 55.6659 94.8295 55.728 94.8211 55.8014C94.8126 55.8748 94.807 55.9905 94.807 56.1514V57.4981C94.807 57.6844 94.8098 57.8284 94.8183 57.9272C94.8267 58.026 94.8408 58.1051 94.8606 58.1672C94.8832 58.2265 94.9171 58.2773 94.9651 58.3168C95.0131 58.3564 95.0893 58.3902 95.1909 58.4185V58.6923H93.2232V58.4185C93.3502 58.3874 93.4377 58.3451 93.4857 58.2858C93.5337 58.2265 93.5676 58.1474 93.5817 58.0486C93.5958 57.9498 93.6071 57.7663 93.6071 57.5009V56.3942C93.6071 56.2136 93.6043 56.0583 93.5958 55.9341C93.5873 55.8098 93.576 55.7082 93.5619 55.6292C93.5478 55.5501 93.5224 55.4852 93.4942 55.4259C93.4659 55.3666 93.4321 55.3214 93.3954 55.2847C93.3587 55.248 93.3135 55.2226 93.2627 55.2028C93.2119 55.1831 93.1469 55.1746 93.0707 55.1746C92.9691 55.1746 92.8618 55.2057 92.7517 55.2706C92.6388 55.3327 92.5456 55.4231 92.4694 55.536C92.3931 55.6489 92.3564 55.7703 92.3564 55.9002V57.5009C92.3564 57.7607 92.3649 57.9413 92.379 58.043C92.3931 58.1474 92.427 58.2265 92.475 58.2858C92.5258 58.3451 92.6105 58.3902 92.7347 58.4213V58.6951H90.7557V58.4213C90.8884 58.3846 90.9787 58.3394 91.0295 58.2801C91.0803 58.2208 91.1142 58.1446 91.134 58.0458C91.1509 57.947 91.1594 57.7663 91.1594 57.5038V55.8042C91.1594 55.6009 91.1566 55.4485 91.1481 55.3525C91.1425 55.2537 91.1255 55.1774 91.0973 55.1182C91.0719 55.0589 91.0324 55.0109 90.9787 54.9742C90.9251 54.9375 90.8319 54.9036 90.6992 54.8782V54.5959L91.8313 54.562H92.3508L92.2887 55.1577L92.2915 55.152Z" fill="white"/>
<path id="Vector_12" d="M100.732 58.1505L100.67 58.1307C100.444 58.3509 100.224 58.5118 100.012 58.6107C99.8002 58.7095 99.5715 58.7603 99.3315 58.7603C99.0916 58.7603 98.8883 58.7179 98.7133 58.6304C98.5382 58.5429 98.4055 58.4243 98.3152 58.2691C98.2249 58.1138 98.1797 57.9359 98.1797 57.7355C98.1797 57.3318 98.3801 57.0127 98.7782 56.7784C99.1763 56.5469 99.7804 56.4001 100.591 56.338V55.9456C100.591 55.6887 100.562 55.491 100.503 55.3527C100.444 55.2144 100.37 55.1155 100.28 55.0591C100.19 55.0026 100.08 54.9744 99.9527 54.9744C99.8256 54.9744 99.7155 54.997 99.6252 55.0393C99.5348 55.0817 99.4501 55.1664 99.3739 55.2878C99.3005 55.4092 99.244 55.5814 99.2073 55.7988H98.4253V55.0478C98.6794 54.9349 98.8883 54.8473 99.0577 54.7881C99.2271 54.7288 99.3908 54.6779 99.5546 54.6384C99.7183 54.5989 99.8651 54.5707 99.995 54.5537C100.125 54.5368 100.255 54.5283 100.385 54.5283C100.718 54.5283 100.983 54.5735 101.184 54.661C101.384 54.7485 101.534 54.8925 101.632 55.0901C101.731 55.2878 101.782 55.5616 101.782 55.9117V57.5237C101.782 57.7044 101.785 57.8456 101.793 57.9444C101.802 58.0432 101.816 58.1166 101.833 58.1646C101.85 58.2126 101.872 58.2521 101.901 58.2803C101.929 58.3086 101.963 58.334 102.002 58.3509C102.042 58.3679 102.118 58.3905 102.228 58.4187V58.6925H100.69L100.726 58.1505H100.732ZM100.594 56.7417C100.167 56.753 99.851 56.832 99.6449 56.9817C99.4388 57.1313 99.3372 57.3487 99.3372 57.6338C99.3372 57.806 99.3852 57.9359 99.4783 58.0234C99.5715 58.1138 99.7014 58.1589 99.868 58.1589C99.995 58.1589 100.114 58.1251 100.227 58.0573C100.339 57.9896 100.43 57.8992 100.495 57.7863C100.56 57.6734 100.594 57.5548 100.594 57.4277V56.7417Z" fill="white"/>
<path id="Vector_13" d="M105.238 57.2973C105.306 57.6248 105.422 57.8705 105.583 58.0314C105.744 58.1923 105.981 58.2742 106.291 58.2742C106.455 58.2742 106.599 58.2459 106.729 58.1923C106.859 58.1358 106.963 58.0483 107.039 57.9269C107.118 57.8055 107.158 57.6502 107.158 57.4667C107.158 57.2945 107.127 57.1477 107.062 57.0235C107 56.8993 106.895 56.7779 106.757 56.6649C106.616 56.552 106.421 56.4306 106.17 56.3064C105.955 56.1991 105.761 56.0862 105.588 55.9704C105.416 55.8547 105.266 55.7276 105.145 55.5893C105.024 55.451 104.928 55.2985 104.86 55.132C104.792 54.9682 104.758 54.7819 104.758 54.573C104.758 54.2342 104.843 53.9462 105.01 53.7091C105.176 53.4719 105.422 53.2912 105.738 53.1698C106.057 53.0484 106.424 52.9863 106.845 52.9863C107.09 52.9863 107.325 53.0004 107.548 53.0259C107.771 53.0513 108.025 53.0993 108.313 53.1642V54.364H107.745C107.692 54.1467 107.627 53.9744 107.545 53.8446C107.463 53.7147 107.361 53.6215 107.24 53.5623C107.118 53.503 106.966 53.4719 106.783 53.4719C106.624 53.4719 106.486 53.5001 106.362 53.5538C106.238 53.6103 106.139 53.6921 106.068 53.7994C105.998 53.9067 105.961 54.0394 105.961 54.1947C105.961 54.3499 105.992 54.4939 106.054 54.6097C106.116 54.7254 106.221 54.8412 106.365 54.9513C106.512 55.0642 106.723 55.1912 107 55.3324C107.339 55.5074 107.604 55.6825 107.799 55.8519C107.994 56.0213 108.138 56.2048 108.228 56.4052C108.321 56.6057 108.366 56.8372 108.366 57.1025C108.366 57.4413 108.287 57.7349 108.132 57.9834C107.974 58.2318 107.745 58.4238 107.446 58.5593C107.147 58.6948 106.799 58.7598 106.404 58.7598C106.122 58.7598 105.831 58.7428 105.526 58.7118C105.221 58.6807 104.936 58.6327 104.668 58.5734V57.3002H105.235L105.238 57.2973Z" fill="white"/>
<path id="Vector_14" d="M111.09 58.7574C110.686 58.7574 110.336 58.6868 110.043 58.5456C109.749 58.4045 109.52 58.1758 109.354 57.8624C109.19 57.549 109.105 57.1538 109.105 56.671C109.105 56.3012 109.156 55.9822 109.258 55.7111C109.36 55.4401 109.501 55.2171 109.684 55.042C109.865 54.867 110.082 54.7343 110.334 54.6524C110.585 54.5677 110.859 54.5254 111.155 54.5254C111.821 54.5254 112.324 54.7004 112.663 55.0533C113.001 55.4034 113.171 55.92 113.171 56.5976C113.171 57.0776 113.086 57.4785 112.92 57.8031C112.75 58.1278 112.513 58.3678 112.2 58.523C111.889 58.6811 111.516 58.7574 111.087 58.7574H111.09ZM110.365 56.5779C110.365 57.1623 110.43 57.5998 110.562 57.8906C110.692 58.1814 110.89 58.3254 111.155 58.3254C111.302 58.3254 111.423 58.2887 111.522 58.2125C111.621 58.1391 111.697 58.0318 111.756 57.8906C111.816 57.7495 111.858 57.5801 111.883 57.3853C111.909 57.1877 111.92 56.9675 111.92 56.7218C111.92 56.129 111.855 55.6857 111.723 55.3921C111.593 55.0985 111.398 54.9517 111.141 54.9517C110.955 54.9517 110.802 55.011 110.689 55.1296C110.576 55.2481 110.494 55.426 110.441 55.6631C110.387 55.9003 110.362 56.2052 110.362 56.5779H110.365Z" fill="white"/>
<path id="Vector_15" d="M117.054 57.6337L117.373 58.0177C117.102 58.2831 116.842 58.4722 116.591 58.5851C116.34 58.6981 116.063 58.7574 115.767 58.7574C115.168 58.7574 114.713 58.5823 114.397 58.2294C114.084 57.8765 113.926 57.3683 113.926 56.6992C113.926 56.2475 114.01 55.8579 114.186 55.5276C114.358 55.1973 114.606 54.9489 114.928 54.7795C115.25 54.6101 115.62 54.5254 116.035 54.5254C116.258 54.5254 116.481 54.5423 116.701 54.5734C116.924 54.6044 117.124 54.6496 117.305 54.7033V55.6998H116.486C116.444 55.4401 116.382 55.2509 116.3 55.1324C116.218 55.0138 116.1 54.9545 115.944 54.9545C115.843 54.9545 115.744 54.9799 115.654 55.0307C115.563 55.0816 115.481 55.1691 115.411 55.2961C115.34 55.4203 115.284 55.5897 115.244 55.8015C115.202 56.0132 115.182 56.2786 115.182 56.6004C115.182 56.9223 115.213 57.1961 115.272 57.4163C115.332 57.6394 115.431 57.8088 115.566 57.9302C115.702 58.0487 115.879 58.1108 116.1 58.1108C116.261 58.1108 116.41 58.077 116.551 58.0064C116.693 57.9358 116.862 57.8144 117.054 57.6337Z" fill="white"/>
<path id="Vector_16" d="M117.867 58.4184C118.003 58.3817 118.096 58.3365 118.147 58.2772C118.198 58.218 118.231 58.1417 118.251 58.0429C118.268 57.9441 118.277 57.7634 118.277 57.5009V55.5783C118.277 55.4428 118.271 55.3355 118.257 55.2508C118.243 55.1661 118.22 55.1011 118.186 55.0532C118.152 55.0052 118.104 54.9656 118.045 54.9402C117.986 54.9148 117.91 54.8922 117.816 54.8725V54.5902L118.954 54.5563H119.471V57.4952C119.471 57.6505 119.471 57.7691 119.476 57.8538C119.479 57.9385 119.488 58.0034 119.496 58.0486C119.505 58.0937 119.516 58.1333 119.53 58.17C119.544 58.2067 119.564 58.2377 119.589 58.2688C119.615 58.2998 119.649 58.3281 119.697 58.3506C119.745 58.3732 119.807 58.3986 119.883 58.4156V58.6894H117.867V58.4156V58.4184ZM119.44 52.9414V53.9549H118.308V52.9414H119.44Z" fill="white"/>
<path id="Vector_17" d="M122.978 58.1505L122.916 58.1307C122.69 58.3509 122.47 58.5118 122.258 58.6107C122.043 58.7095 121.818 58.7603 121.578 58.7603C121.338 58.7603 121.134 58.7179 120.959 58.6304C120.784 58.5429 120.652 58.4243 120.561 58.2691C120.471 58.1138 120.426 57.9359 120.426 57.7355C120.426 57.3318 120.626 57.0127 121.024 56.7784C121.422 56.5469 122.027 56.4001 122.837 56.338V55.9456C122.837 55.6887 122.809 55.491 122.749 55.3527C122.69 55.2144 122.617 55.1155 122.526 55.0591C122.436 55.0026 122.326 54.9744 122.199 54.9744C122.072 54.9744 121.962 54.997 121.871 55.0393C121.781 55.0817 121.696 55.1664 121.62 55.2878C121.547 55.4092 121.49 55.5814 121.453 55.7988H120.671V55.0478C120.925 54.9349 121.134 54.8473 121.304 54.7881C121.47 54.7288 121.637 54.6779 121.801 54.6384C121.964 54.5989 122.111 54.5707 122.241 54.5537C122.371 54.5368 122.501 54.5283 122.631 54.5283C122.964 54.5283 123.229 54.5735 123.43 54.661C123.63 54.7485 123.78 54.8925 123.879 55.0901C123.977 55.2878 124.028 55.5616 124.028 55.9117V57.5237C124.028 57.7044 124.031 57.8456 124.039 57.9444C124.048 58.0432 124.062 58.1166 124.079 58.1646C124.096 58.2126 124.119 58.2521 124.147 58.2803C124.175 58.3086 124.209 58.334 124.248 58.3509C124.288 58.3679 124.364 58.3905 124.474 58.4187V58.6925H122.936L122.972 58.1505H122.978ZM122.84 56.7417C122.413 56.753 122.097 56.832 121.891 56.9817C121.685 57.1313 121.583 57.3487 121.583 57.6338C121.583 57.806 121.631 57.9359 121.724 58.0234C121.818 58.1138 121.947 58.1589 122.114 58.1589C122.241 58.1589 122.36 58.1251 122.473 58.0573C122.586 57.9896 122.676 57.8992 122.741 57.7863C122.806 57.6734 122.84 57.5548 122.84 57.4277V56.7417Z" fill="white"/>
<path id="Vector_18" d="M126.61 57.4947C126.61 57.7572 126.619 57.9379 126.636 58.0367C126.653 58.1356 126.687 58.2146 126.737 58.2739C126.788 58.3332 126.884 58.3812 127.025 58.4179V58.6917H125.001V58.4179C125.083 58.3981 125.148 58.3755 125.196 58.3501C125.244 58.3247 125.278 58.2936 125.306 58.2598C125.334 58.2259 125.354 58.1807 125.374 58.1271C125.394 58.0734 125.405 58 125.41 57.904C125.416 57.8081 125.419 57.6725 125.419 57.4975V54.2734C125.419 54.0363 125.419 53.8612 125.413 53.7511C125.408 53.641 125.402 53.545 125.388 53.4688C125.374 53.3926 125.354 53.3333 125.326 53.2881C125.298 53.243 125.255 53.2063 125.204 53.178C125.151 53.1498 125.069 53.1244 124.953 53.1046V52.8308L126.099 52.7715H126.616V57.4947H126.61Z" fill="white"/>
<path id="Vector_19" d="M135.887 54.4661C135.926 54.339 135.957 54.212 135.986 54.0849C136.014 53.9579 136.028 53.8478 136.028 53.7574C136.028 53.6135 135.994 53.509 135.924 53.4413C135.853 53.3735 135.749 53.334 135.607 53.3227V53.0488H137.33V53.3227C137.228 53.3453 137.143 53.3848 137.073 53.4413C137.005 53.4977 136.943 53.5768 136.886 53.6784C136.83 53.78 136.762 53.9523 136.68 54.1922L135.13 58.7206H134.148L133.213 54.8387L132.107 58.7206H131.073L129.828 54.0906C129.769 53.8647 129.715 53.7066 129.667 53.6191C129.619 53.5316 129.569 53.4638 129.509 53.4215C129.45 53.3763 129.379 53.3453 129.289 53.3227V53.0488H131.514V53.3227C131.37 53.3396 131.265 53.3791 131.195 53.4413C131.124 53.5034 131.09 53.5937 131.09 53.7095C131.09 53.8563 131.13 54.0821 131.209 54.3927L131.923 57.2639L133.109 53.0488H134.043L135.009 57.2639L135.881 54.4661H135.887Z" fill="white"/>
<path id="Vector_20" d="M140.881 57.9385C140.599 58.235 140.322 58.4467 140.045 58.5709C139.769 58.6951 139.453 58.7573 139.094 58.7573C138.453 58.7573 137.97 58.5822 137.646 58.2293C137.321 57.8764 137.16 57.3569 137.16 56.6653C137.16 56.2192 137.242 55.8324 137.411 55.5106C137.581 55.1887 137.815 54.9403 138.12 54.7737C138.425 54.6072 138.781 54.5225 139.187 54.5225C139.438 54.5225 139.659 54.5507 139.845 54.61C140.034 54.6664 140.195 54.7483 140.331 54.8528C140.466 54.9572 140.576 55.0815 140.667 55.2283C140.771 55.4033 140.85 55.6009 140.901 55.824C140.957 56.0526 140.986 56.3293 140.988 56.654H138.368C138.368 57.1537 138.459 57.5207 138.634 57.755C138.809 57.9893 139.074 58.1079 139.433 58.1079C139.642 58.1079 139.831 58.0684 139.997 57.9893C140.167 57.9103 140.348 57.772 140.542 57.5743L140.878 57.9385H140.881ZM139.766 56.2079C139.755 55.7873 139.701 55.4711 139.599 55.265C139.501 55.0589 139.34 54.9544 139.119 54.9544C138.899 54.9544 138.738 55.0617 138.614 55.2763C138.49 55.4908 138.414 55.8014 138.388 56.2051H139.766V56.2079Z" fill="white"/>
<path id="Vector_21" d="M143.177 57.4947C143.177 57.7572 143.185 57.9379 143.202 58.0367C143.219 58.1356 143.253 58.2146 143.304 58.2739C143.355 58.3332 143.451 58.3812 143.592 58.4179V58.6917H141.568V58.4179C141.649 58.3981 141.714 58.3755 141.762 58.3501C141.81 58.3247 141.844 58.2936 141.872 58.2598C141.901 58.2259 141.92 58.1807 141.94 58.1271C141.96 58.0734 141.971 58 141.977 57.904C141.983 57.8081 141.985 57.6725 141.985 57.4975V54.2734C141.985 54.0363 141.985 53.8612 141.98 53.7511C141.974 53.641 141.968 53.545 141.954 53.4688C141.94 53.3926 141.92 53.3333 141.892 53.2881C141.864 53.243 141.822 53.2063 141.771 53.178C141.72 53.1498 141.635 53.1244 141.52 53.1046V52.8308L142.666 52.7715H143.182V57.4947H143.177Z" fill="white"/>
<path id="Vector_22" d="M144.235 58.4182C144.365 58.3787 144.455 58.3363 144.506 58.2912C144.557 58.246 144.593 58.1782 144.616 58.0935C144.639 58.0088 144.65 57.862 144.65 57.6531V55.1066H144.145V54.8215C144.274 54.8017 144.365 54.7819 144.416 54.7565C144.466 54.7311 144.509 54.7001 144.543 54.6605C144.576 54.621 144.602 54.5702 144.622 54.5053C144.641 54.4403 144.656 54.3613 144.664 54.2625C144.709 53.7656 144.893 53.3901 145.215 53.136C145.539 52.8819 145.997 52.7549 146.589 52.7549C146.827 52.7549 147.038 52.7746 147.222 52.8142V53.6583H146.66C146.612 53.5059 146.561 53.3958 146.505 53.3223C146.448 53.2489 146.375 53.2151 146.285 53.2151C146.166 53.2151 146.076 53.2546 146.011 53.3336C145.946 53.4127 145.903 53.5228 145.881 53.6696C145.858 53.8136 145.847 54.0169 145.847 54.2794V54.5928H146.646V55.1094H145.847V57.6559C145.847 57.862 145.858 58.0088 145.881 58.0935C145.903 58.1782 145.943 58.246 145.999 58.2968C146.056 58.3476 146.155 58.3872 146.299 58.421V58.6949H144.241V58.421L144.235 58.4182Z" fill="white"/>
<path id="Vector_23" d="M149.443 58.1505L149.381 58.1307C149.155 58.3509 148.935 58.5118 148.723 58.6107C148.508 58.7095 148.282 58.7603 148.042 58.7603C147.803 58.7603 147.599 58.7179 147.424 58.6304C147.249 58.5429 147.116 58.4243 147.026 58.2691C146.936 58.1138 146.891 57.9359 146.891 57.7355C146.891 57.3318 147.091 57.0127 147.489 56.7784C147.887 56.5469 148.491 56.4001 149.302 56.338V55.9456C149.302 55.6887 149.273 55.491 149.214 55.3527C149.155 55.2144 149.081 55.1155 148.991 55.0591C148.901 55.0026 148.791 54.9744 148.664 54.9744C148.537 54.9744 148.426 54.997 148.336 55.0393C148.243 55.0845 148.161 55.1664 148.085 55.2878C148.011 55.4092 147.955 55.5814 147.918 55.7988H147.136V55.0478C147.39 54.9349 147.599 54.8473 147.769 54.7881C147.938 54.7288 148.102 54.6779 148.266 54.6384C148.429 54.5989 148.576 54.5707 148.706 54.5537C148.836 54.5368 148.966 54.5283 149.096 54.5283C149.429 54.5283 149.694 54.5735 149.895 54.661C150.095 54.7485 150.245 54.8925 150.343 55.0901C150.442 55.2878 150.493 55.5616 150.493 55.9117V57.5237C150.493 57.7044 150.496 57.8456 150.504 57.9444C150.513 58.0432 150.527 58.1166 150.544 58.1646C150.561 58.2126 150.583 58.2521 150.612 58.2803C150.64 58.3086 150.674 58.334 150.713 58.3509C150.753 58.3679 150.829 58.3905 150.939 58.4187V58.6925H149.4L149.437 58.1505H149.443ZM149.304 56.7417C148.878 56.753 148.562 56.832 148.356 56.9817C148.15 57.1313 148.048 57.3487 148.048 57.6338C148.048 57.806 148.096 57.9359 148.189 58.0234C148.282 58.1138 148.412 58.1589 148.579 58.1589C148.706 58.1589 148.825 58.1251 148.937 58.0573C149.05 57.9896 149.141 57.8992 149.206 57.7863C149.271 57.6734 149.304 57.5548 149.304 57.4277V56.7417Z" fill="white"/>
<path id="Vector_24" d="M153.073 55.1831L153.127 55.1944C153.327 54.9572 153.534 54.7878 153.748 54.6806C153.96 54.5761 154.191 54.5225 154.437 54.5225C154.606 54.5225 154.781 54.5394 154.965 54.5761V55.7167H154.217C154.169 55.5557 154.11 55.4344 154.033 55.3497C153.957 55.265 153.855 55.2226 153.728 55.2226C153.669 55.2226 153.601 55.2424 153.528 55.2791C153.455 55.3158 153.387 55.3694 153.325 55.4372C153.263 55.5049 153.217 55.5727 153.192 55.6433C153.167 55.7138 153.15 55.7844 153.141 55.855C153.133 55.9256 153.13 56.0329 153.13 56.1769V57.4953C153.13 57.7578 153.138 57.9413 153.158 58.0458C153.178 58.1503 153.217 58.2321 153.274 58.2914C153.333 58.3507 153.429 58.3931 153.567 58.4185V58.6923H151.529V58.4185C151.662 58.3818 151.752 58.3366 151.803 58.2773C151.854 58.218 151.888 58.1418 151.907 58.043C151.924 57.9442 151.933 57.7635 151.933 57.5009V55.8014C151.933 55.5981 151.93 55.4456 151.922 55.3497C151.916 55.2508 151.899 55.1746 151.871 55.1153C151.842 55.056 151.806 55.008 151.752 54.9713C151.699 54.9346 151.605 54.9008 151.473 54.8754V54.593L152.605 54.5592H153.124L153.068 55.1831H153.073Z" fill="white"/>
<path id="Vector_25" d="M159.053 57.9385C158.771 58.235 158.494 58.4467 158.217 58.5709C157.941 58.6951 157.624 58.7573 157.266 58.7573C156.625 58.7573 156.142 58.5822 155.818 58.2293C155.493 57.8764 155.332 57.3569 155.332 56.6653C155.332 56.2192 155.414 55.8324 155.583 55.5106C155.753 55.1887 155.987 54.9403 156.292 54.7737C156.597 54.6072 156.953 54.5225 157.359 54.5225C157.61 54.5225 157.831 54.5507 158.017 54.61C158.206 54.6664 158.367 54.7483 158.502 54.8528C158.638 54.9572 158.748 55.0815 158.838 55.2283C158.943 55.4033 159.022 55.6009 159.073 55.824C159.129 56.0526 159.157 56.3293 159.16 56.654H156.54C156.54 57.1537 156.631 57.5207 156.806 57.755C156.981 57.9893 157.246 58.1079 157.605 58.1079C157.814 58.1079 158.003 58.0684 158.169 57.9893C158.339 57.9103 158.519 57.772 158.714 57.5743L159.05 57.9385H159.053ZM157.938 56.2079C157.927 55.7873 157.873 55.4711 157.771 55.265C157.672 55.0589 157.512 54.9544 157.291 54.9544C157.071 54.9544 156.91 55.0617 156.786 55.2763C156.662 55.4908 156.586 55.8014 156.56 56.2051H157.938V56.2079Z" fill="white"/>
<path id="Vector_26" d="M164.649 56.9419H162.885L162.749 57.3343C162.71 57.4445 162.679 57.5517 162.653 57.6534C162.628 57.755 162.617 57.8651 162.617 57.9809C162.617 58.2519 162.761 58.3959 163.046 58.4156V58.6895H161.281V58.4156C161.383 58.4043 161.473 58.3676 161.549 58.3083C161.626 58.2491 161.696 58.1644 161.761 58.0599C161.823 57.9555 161.891 57.8058 161.964 57.611L163.687 53.0205H164.79L166.154 57.6505C166.213 57.8566 166.264 58.0034 166.307 58.091C166.349 58.1785 166.403 58.2491 166.467 58.3027C166.532 58.3563 166.626 58.3959 166.744 58.4213V58.6951H164.463V58.4213C164.607 58.4043 164.711 58.3648 164.782 58.3027C164.853 58.2406 164.886 58.1503 164.886 58.0345C164.886 57.9498 164.878 57.8538 164.858 57.7494C164.838 57.6449 164.807 57.5122 164.762 57.3513L164.649 56.9476V56.9419ZM163.043 56.4592H164.531L163.87 54.1328L163.043 56.4592Z" fill="white"/>
<path id="Vector_27" d="M167.718 57.5745C167.783 57.8258 167.887 58.0121 168.031 58.1392C168.175 58.2662 168.367 58.3283 168.607 58.3283C168.813 58.3283 168.972 58.2803 169.076 58.1872C169.183 58.094 169.234 57.9585 169.234 57.7778C169.234 57.6649 169.212 57.5689 169.161 57.4899C169.11 57.4108 169.034 57.3346 168.921 57.2612C168.808 57.1878 168.619 57.0918 168.348 56.9732C168.195 56.9083 168.054 56.8349 167.921 56.753C167.789 56.6739 167.67 56.5836 167.571 56.482C167.472 56.3803 167.393 56.2702 167.337 56.146C167.28 56.0218 167.249 55.8835 167.249 55.7338C167.249 55.4854 167.32 55.2708 167.464 55.0901C167.608 54.9095 167.811 54.7683 168.077 54.6723C168.342 54.5763 168.647 54.5283 168.989 54.5283C169.189 54.5283 169.387 54.5368 169.579 54.5537C169.771 54.5707 170.022 54.6074 170.327 54.661V55.6237H169.782C169.72 55.4487 169.649 55.3103 169.573 55.2144C169.497 55.1184 169.415 55.0506 169.322 55.0139C169.228 54.9772 169.121 54.9574 168.994 54.9574C168.813 54.9574 168.667 54.9998 168.559 55.0817C168.452 55.1635 168.398 55.2793 168.398 55.4289C168.398 55.5334 168.418 55.6237 168.458 55.6971C168.497 55.7705 168.565 55.8439 168.664 55.9145C168.763 55.9851 168.955 56.0783 169.237 56.1968C169.497 56.3041 169.706 56.417 169.869 56.5328C170.033 56.6485 170.154 56.7841 170.242 56.9365C170.327 57.089 170.369 57.2668 170.369 57.4729C170.369 57.6959 170.327 57.8879 170.245 58.0488C170.163 58.2098 170.047 58.3425 169.898 58.4469C169.748 58.5514 169.57 58.6304 169.361 58.6812C169.152 58.7321 168.924 58.7575 168.672 58.7575C168.218 58.7575 167.712 58.6925 167.156 58.5627V57.5745H167.71H167.718Z" fill="white"/>
<path id="Vector_28" d="M171.605 57.5745C171.67 57.8258 171.774 58.0121 171.918 58.1392C172.062 58.2662 172.254 58.3283 172.494 58.3283C172.7 58.3283 172.858 58.2803 172.963 58.1872C173.07 58.094 173.121 57.9585 173.121 57.7778C173.121 57.6649 173.098 57.5689 173.047 57.4899C172.997 57.4108 172.92 57.3346 172.807 57.2612C172.695 57.1878 172.505 57.0918 172.234 56.9732C172.082 56.9083 171.941 56.8349 171.808 56.753C171.675 56.6739 171.557 56.5836 171.458 56.482C171.359 56.3803 171.28 56.2702 171.224 56.146C171.167 56.0218 171.136 55.8835 171.136 55.7338C171.136 55.4854 171.207 55.2708 171.351 55.0901C171.495 54.9095 171.698 54.7683 171.963 54.6723C172.229 54.5763 172.534 54.5283 172.875 54.5283C173.076 54.5283 173.273 54.5368 173.465 54.5537C173.657 54.5707 173.909 54.6074 174.213 54.661V55.6237H173.669C173.606 55.4487 173.536 55.3103 173.46 55.2144C173.383 55.1184 173.302 55.0506 173.208 55.0139C173.115 54.9772 173.008 54.9574 172.881 54.9574C172.7 54.9574 172.553 54.9998 172.446 55.0817C172.339 55.1635 172.285 55.2793 172.285 55.4289C172.285 55.5334 172.305 55.6237 172.344 55.6971C172.384 55.7705 172.452 55.8439 172.551 55.9145C172.649 55.9851 172.841 56.0783 173.124 56.1968C173.383 56.3041 173.592 56.417 173.756 56.5328C173.92 56.6485 174.041 56.7841 174.129 56.9365C174.213 57.089 174.256 57.2668 174.256 57.4729C174.256 57.6959 174.213 57.8879 174.132 58.0488C174.05 58.2098 173.934 58.3425 173.784 58.4469C173.635 58.5514 173.457 58.6304 173.248 58.6812C173.039 58.7321 172.81 58.7575 172.559 58.7575C172.104 58.7575 171.599 58.6925 171.043 58.5627V57.5745H171.596H171.605Z" fill="white"/>
<path id="Vector_29" d="M176.961 58.7574C176.558 58.7574 176.207 58.6868 175.914 58.5456C175.62 58.4045 175.392 58.1758 175.225 57.8624C175.058 57.549 174.977 57.1538 174.977 56.671C174.977 56.3012 175.027 55.9822 175.129 55.7111C175.231 55.4401 175.372 55.2171 175.555 55.042C175.736 54.867 175.953 54.7343 176.207 54.6524C176.459 54.5677 176.733 54.5254 177.029 54.5254C177.695 54.5254 178.198 54.7004 178.537 55.0533C178.875 55.4062 179.045 55.92 179.045 56.5976C179.045 57.0776 178.96 57.4785 178.794 57.8031C178.627 58.1278 178.387 58.3678 178.074 58.523C177.763 58.6811 177.39 58.7574 176.961 58.7574ZM176.233 56.5779C176.233 57.1623 176.298 57.5998 176.43 57.8906C176.56 58.1814 176.758 58.3254 177.023 58.3254C177.17 58.3254 177.292 58.2887 177.39 58.2125C177.489 58.1363 177.565 58.0318 177.625 57.8906C177.684 57.7495 177.726 57.5801 177.752 57.3853C177.777 57.1877 177.788 56.9675 177.788 56.7218C177.788 56.129 177.724 55.6857 177.591 55.3921C177.461 55.0985 177.266 54.9517 177.009 54.9517C176.823 54.9517 176.67 55.011 176.558 55.1296C176.445 55.2481 176.363 55.426 176.309 55.6631C176.255 55.9003 176.23 56.2052 176.23 56.5779H176.233Z" fill="white"/>
<path id="Vector_30" d="M182.925 57.6337L183.244 58.0177C182.973 58.2831 182.713 58.4722 182.462 58.5851C182.211 58.6981 181.934 58.7574 181.638 58.7574C181.039 58.7574 180.585 58.5823 180.268 58.2294C179.955 57.8765 179.797 57.3683 179.797 56.6992C179.797 56.2475 179.882 55.8579 180.057 55.5276C180.229 55.1973 180.477 54.9489 180.799 54.7795C181.121 54.6101 181.491 54.5254 181.906 54.5254C182.129 54.5254 182.352 54.5423 182.572 54.5734C182.792 54.6044 182.996 54.6496 183.176 54.7033V55.6998H182.358C182.315 55.4401 182.253 55.2509 182.171 55.1324C182.089 55.0138 181.971 54.9545 181.815 54.9545C181.714 54.9545 181.615 54.9799 181.525 55.0307C181.432 55.0816 181.35 55.1691 181.282 55.2961C181.211 55.4203 181.155 55.5897 181.115 55.8015C181.073 56.0132 181.053 56.2786 181.053 56.6004C181.053 56.9223 181.084 57.1961 181.144 57.4163C181.203 57.6394 181.302 57.8088 181.437 57.9302C181.573 58.0487 181.751 58.1108 181.971 58.1108C182.132 58.1108 182.281 58.077 182.422 58.0064C182.564 57.9386 182.733 57.8144 182.925 57.6337Z" fill="white"/>
<path id="Vector_31" d="M183.738 58.4184C183.874 58.3817 183.967 58.3365 184.018 58.2772C184.069 58.218 184.103 58.1417 184.122 58.0429C184.139 57.9441 184.148 57.7634 184.148 57.5009V55.5783C184.148 55.4428 184.142 55.3355 184.128 55.2508C184.114 55.1661 184.091 55.1011 184.057 55.0532C184.023 55.0052 183.975 54.9656 183.916 54.9402C183.857 54.9148 183.781 54.8922 183.688 54.8725V54.5902L184.825 54.5563H185.342V57.4952C185.342 57.6505 185.342 57.7691 185.348 57.8538C185.35 57.9385 185.359 58.0034 185.367 58.0486C185.376 58.0937 185.387 58.1333 185.401 58.17C185.415 58.2067 185.435 58.2377 185.46 58.2688C185.486 58.2998 185.52 58.3281 185.568 58.3506C185.616 58.3732 185.678 58.3986 185.754 58.4156V58.6894H183.738V58.4156V58.4184ZM185.308 52.9414V53.9549H184.176V52.9414H185.308Z" fill="white"/>
<path id="Vector_32" d="M188.845 58.1505L188.783 58.1307C188.557 58.3509 188.337 58.5118 188.125 58.6107C187.911 58.7095 187.685 58.7603 187.445 58.7603C187.205 58.7603 187.002 58.7179 186.827 58.6304C186.652 58.5429 186.519 58.4243 186.428 58.2691C186.338 58.1138 186.293 57.9359 186.293 57.7355C186.293 57.3318 186.493 57.0127 186.891 56.7784C187.29 56.5469 187.894 56.4001 188.704 56.338V55.9456C188.704 55.6887 188.676 55.491 188.616 55.3527C188.557 55.2144 188.484 55.1155 188.393 55.0591C188.303 55.0026 188.193 54.9744 188.066 54.9744C187.939 54.9744 187.829 54.997 187.738 55.0393C187.645 55.0845 187.563 55.1664 187.487 55.2878C187.414 55.4092 187.357 55.5814 187.321 55.7988H186.539V55.0478C186.793 54.9349 187.002 54.8473 187.171 54.7881C187.34 54.7288 187.504 54.6779 187.668 54.6384C187.832 54.5989 187.978 54.5707 188.108 54.5537C188.238 54.5368 188.368 54.5283 188.498 54.5283C188.831 54.5283 189.096 54.5735 189.297 54.661C189.497 54.7485 189.647 54.8925 189.746 55.0901C189.845 55.2878 189.895 55.5616 189.895 55.9117V57.5237C189.895 57.7044 189.898 57.8456 189.907 57.9444C189.915 58.0432 189.929 58.1166 189.946 58.1646C189.963 58.2126 189.986 58.2521 190.014 58.2803C190.042 58.3086 190.076 58.334 190.116 58.3509C190.155 58.3679 190.231 58.3905 190.341 58.4187V58.6925H188.803L188.839 58.1505H188.845ZM188.71 56.7417C188.283 56.753 187.967 56.832 187.761 56.9817C187.555 57.1313 187.453 57.3487 187.453 57.6338C187.453 57.806 187.501 57.9359 187.594 58.0234C187.688 58.1138 187.817 58.1589 187.984 58.1589C188.111 58.1589 188.23 58.1251 188.343 58.0573C188.456 57.9896 188.546 57.8992 188.611 57.7863C188.676 57.6734 188.71 57.5548 188.71 57.4277V56.7417Z" fill="white"/>
<path id="Vector_33" d="M193.76 58.1953C193.517 58.4013 193.297 58.5482 193.099 58.63C192.901 58.7147 192.693 58.7571 192.472 58.7571C192.06 58.7571 191.755 58.647 191.552 58.4239C191.349 58.2009 191.247 57.8678 191.247 57.4189V55.1095H190.73V54.8244C190.897 54.7961 191.021 54.7566 191.103 54.7001C191.182 54.6465 191.244 54.5703 191.289 54.4799C191.335 54.3868 191.369 54.2682 191.394 54.1186C191.419 53.9689 191.439 53.7826 191.453 53.5596H192.441V54.5929H193.619V55.1095H192.441V56.9728C192.441 57.2834 192.455 57.5149 192.484 57.6617C192.512 57.8113 192.563 57.9214 192.63 57.9892C192.698 58.0569 192.786 58.0936 192.887 58.0936C192.964 58.0936 193.034 58.088 193.093 58.0739C193.153 58.0597 193.218 58.0343 193.285 58.0005C193.353 57.9666 193.424 57.9129 193.497 57.848L193.757 58.1953H193.76Z" fill="white"/>
<path id="Vector_34" d="M194.02 58.4184C194.155 58.3817 194.248 58.3365 194.299 58.2772C194.35 58.218 194.384 58.1417 194.404 58.0429C194.42 57.9441 194.429 57.7634 194.429 57.5009V55.5783C194.429 55.4428 194.423 55.3355 194.409 55.2508C194.395 55.1661 194.372 55.1011 194.339 55.0532C194.305 55.0052 194.257 54.9656 194.197 54.9402C194.138 54.9148 194.062 54.8922 193.969 54.8725V54.5902L195.107 54.5563H195.623V57.4952C195.623 57.6505 195.623 57.7691 195.629 57.8538C195.632 57.9385 195.64 58.0034 195.649 58.0486C195.657 58.0937 195.668 58.1333 195.682 58.17C195.697 58.2067 195.716 58.2377 195.742 58.2688C195.767 58.2998 195.801 58.3281 195.849 58.3506C195.897 58.3732 195.959 58.3986 196.035 58.4156V58.6894H194.02V58.4156V58.4184ZM195.592 52.9414V53.9549H194.46V52.9414H195.592Z" fill="white"/>
<path id="Vector_35" d="M198.692 58.7574C198.288 58.7574 197.938 58.6868 197.644 58.5456C197.351 58.4045 197.122 58.1758 196.955 57.8624C196.789 57.549 196.707 57.1538 196.707 56.671C196.707 56.3012 196.758 55.9822 196.859 55.7111C196.961 55.4401 197.102 55.2171 197.286 55.042C197.466 54.867 197.684 54.7343 197.938 54.6524C198.189 54.5677 198.463 54.5254 198.759 54.5254C199.426 54.5254 199.928 54.7004 200.267 55.0533C200.606 55.4062 200.775 55.92 200.775 56.5976C200.775 57.0776 200.691 57.4785 200.524 57.8031C200.357 58.1278 200.117 58.3678 199.804 58.523C199.494 58.6811 199.121 58.7574 198.692 58.7574ZM197.966 56.5779C197.966 57.1623 198.031 57.5998 198.164 57.8906C198.294 58.1814 198.491 58.3254 198.757 58.3254C198.903 58.3254 199.025 58.2887 199.124 58.2125C199.222 58.1363 199.299 58.0318 199.358 57.8906C199.417 57.7495 199.46 57.5801 199.485 57.3853C199.51 57.1877 199.522 56.9675 199.522 56.7218C199.522 56.129 199.457 55.6857 199.324 55.3921C199.194 55.0985 198.999 54.9517 198.743 54.9517C198.556 54.9517 198.404 55.011 198.291 55.1296C198.178 55.2481 198.096 55.426 198.042 55.6631C197.989 55.9003 197.963 56.2052 197.963 56.5779H197.966Z" fill="white"/>
<path id="Vector_36" d="M205.998 58.6895H203.994V58.4156C204.121 58.3846 204.209 58.3394 204.259 58.2801C204.31 58.2208 204.341 58.1418 204.361 58.0402C204.381 57.9385 204.386 57.7578 204.386 57.4981V56.3942C204.386 56.1994 204.384 56.0385 204.375 55.9115C204.367 55.7844 204.353 55.6828 204.336 55.6037C204.319 55.5247 204.293 55.4569 204.262 55.4033C204.231 55.3497 204.194 55.3045 204.158 55.2706C204.118 55.2367 204.076 55.2113 204.025 55.1944C203.974 55.1774 203.912 55.169 203.836 55.169C203.731 55.169 203.621 55.2028 203.508 55.265C203.395 55.3299 203.299 55.4202 203.223 55.5332C203.147 55.6461 203.108 55.7703 203.108 55.9002V57.4925C203.108 57.755 203.116 57.9357 203.133 58.0373C203.15 58.139 203.184 58.2208 203.235 58.2801C203.285 58.3394 203.376 58.3846 203.506 58.4156V58.6895H201.51V58.4156C201.642 58.3789 201.733 58.3338 201.783 58.2745C201.834 58.2152 201.868 58.139 201.888 58.0402C201.905 57.9413 201.913 57.7607 201.913 57.4981V55.7985C201.913 55.5953 201.91 55.4428 201.902 55.3468C201.896 55.248 201.879 55.1718 201.851 55.1125C201.823 55.0532 201.786 55.0052 201.733 54.9685C201.679 54.9318 201.586 54.8979 201.453 54.8725V54.5902L202.585 54.5563H203.105L203.043 55.152L203.091 55.1633C203.263 55.0109 203.412 54.8923 203.542 54.8048C203.672 54.7173 203.808 54.6495 203.949 54.5987C204.09 54.5479 204.24 54.5225 204.398 54.5225C204.624 54.5225 204.81 54.5535 204.96 54.6184C205.109 54.6834 205.228 54.7765 205.321 54.9008C205.414 55.025 205.479 55.1774 205.519 55.3553C205.558 55.5332 205.578 55.7421 205.578 55.9792V57.4925C205.578 57.6139 205.578 57.7268 205.583 57.8341C205.586 57.9413 205.598 58.026 205.615 58.0882C205.631 58.1503 205.654 58.2039 205.682 58.2434C205.71 58.283 205.753 58.3168 205.804 58.3451C205.854 58.3733 205.919 58.3959 205.993 58.4156V58.6895H205.998Z" fill="white"/>
</g>
</g>
<defs>
<clipPath id="clip0_514_355">
<rect width="206" height="59.4141" fill="white" transform="translate(0 0.59375)"/>
</clipPath>
</defs>
</svg>
