<svg width="24" height="25" viewBox="0 0 24 25" fill="none" xmlns="http://www.w3.org/2000/svg">
<g id="SVG">
<g id="Group">
<path id="Vector" d="M21 5.09375H3C2.80109 5.09375 2.61032 5.17277 2.46967 5.31342C2.32902 5.45407 2.25 5.64484 2.25 5.84375V18.5938C2.25 18.9916 2.40804 19.3731 2.68934 19.6544C2.97064 19.9357 3.35218 20.0938 3.75 20.0938H20.25C20.6478 20.0938 21.0294 19.9357 21.3107 19.6544C21.592 19.3731 21.75 18.9916 21.75 18.5938V5.84375C21.75 5.64484 21.671 5.45407 21.5303 5.31342C21.3897 5.17277 21.1989 5.09375 21 5.09375ZM12 13.0766L4.92844 6.59375H19.0716L12 13.0766ZM9.25406 12.5938L3.75 17.6384V7.54906L9.25406 12.5938ZM10.3641 13.6109L11.4891 14.6469C11.6274 14.7739 11.8084 14.8444 11.9963 14.8444C12.1841 14.8444 12.3651 14.7739 12.5034 14.6469L13.6284 13.6109L19.0659 18.5938H4.92844L10.3641 13.6109ZM14.7459 12.5938L20.25 7.54813V17.6394L14.7459 12.5938Z" fill="white"/>
</g>
</g>
</svg>
