<svg width="24" height="25" viewBox="0 0 24 25" fill="none" xmlns="http://www.w3.org/2000/svg">
<g id="SVG">
<g id="Group">
<path id="Vector" d="M23.1921 7.05725C23.1353 6.9202 23.0392 6.80305 22.9159 6.72061C22.7926 6.63818 22.6476 6.59416 22.4993 6.59413H19.6465C19.2476 5.91555 18.6799 5.35171 17.9987 4.95745C17.3174 4.56318 16.5457 4.35189 15.7586 4.34413C15.1723 4.33644 14.5902 4.4461 14.0469 4.66668C13.5035 4.88725 13.0097 5.21427 12.5946 5.6285C12.1673 6.04777 11.8282 6.54824 11.5972 7.10046C11.3662 7.65268 11.2479 8.24553 11.2493 8.84413V9.41507C7.47489 8.41944 4.3877 5.34913 4.35489 5.31632C4.25427 5.2148 4.12674 5.14416 3.98731 5.1127C3.84789 5.08124 3.70238 5.09027 3.56792 5.13874C3.43345 5.1872 3.31564 5.27308 3.22835 5.38626C3.14106 5.49944 3.08792 5.6352 3.0752 5.77757C2.67114 10.2579 3.97239 13.256 5.1377 14.9819C5.7059 15.8352 6.39713 16.5997 7.18895 17.2507C5.76114 18.8941 3.51302 19.7576 3.48864 19.7669C3.38281 19.8066 3.28731 19.8696 3.20926 19.9514C3.13122 20.0331 3.07266 20.1314 3.03795 20.239C3.00324 20.3465 2.99329 20.4605 3.00883 20.5724C3.02437 20.6844 3.06501 20.7914 3.1277 20.8854C3.19802 20.9904 3.47927 21.3588 4.16645 21.7029C5.01583 22.1285 6.13802 22.3441 7.49927 22.3441C14.1246 22.3441 19.6605 17.2423 20.2258 10.6779L23.0299 7.87475C23.1347 7.76981 23.2061 7.63612 23.235 7.49061C23.2639 7.34509 23.2489 7.19428 23.1921 7.05725ZM18.9733 9.81444C18.8447 9.94334 18.7674 10.1146 18.7558 10.2963C18.3743 16.211 13.4318 20.8441 7.49927 20.8441C6.50927 20.8441 5.81177 20.7129 5.32239 20.5554C6.40145 19.9694 7.90614 18.9616 8.87364 17.5104C8.93043 17.425 8.96912 17.329 8.98732 17.2281C9.00553 17.1272 9.00287 17.0237 8.9795 16.9239C8.95613 16.8241 8.91255 16.7301 8.85145 16.6478C8.79035 16.5655 8.71303 16.4966 8.62427 16.4454C8.5802 16.4201 4.5077 13.976 4.49927 7.44538C5.99927 8.66413 8.74145 10.5551 11.8746 11.0819C11.982 11.1 12.092 11.0945 12.197 11.0658C12.3021 11.0371 12.3996 10.9859 12.4828 10.9157C12.5661 10.8455 12.633 10.758 12.679 10.6593C12.725 10.5606 12.749 10.453 12.7493 10.3441V8.84413C12.7484 8.44405 12.8276 8.04784 12.9822 7.67883C13.1367 7.30981 13.3636 6.97543 13.6493 6.69538C13.9232 6.42097 14.2493 6.20425 14.6084 6.05804C14.9675 5.91183 15.3522 5.8391 15.7399 5.84413C16.9268 5.85913 18.0358 6.58288 18.4999 7.64507C18.5584 7.77861 18.6545 7.89221 18.7766 7.97196C18.8986 8.05172 19.0413 8.09417 19.1871 8.09413H20.6871L18.9733 9.81444Z" fill="white"/>
</g>
</g>
</svg>
